<?xml version="1.0" encoding="UTF-8"?>
<svg id="Ebene_1" xmlns="http://www.w3.org/2000/svg" version="1.1" viewBox="0 0 40 40">
  <!-- Generator: Adobe Illustrator 29.8.3, SVG Export Plug-In . SVG Version: 2.1.1 Build 3)  -->
  <defs>
    <style>
      .st0 {
        fill: #474847;
      }
    </style>
  </defs>
  <path class="st0" d="M19.84,35.64c-1.71,0-3.42,0-5.14,0-3.09,0-6.18-.01-9.26-.01-.49,0-.98,0-1.47,0-.32,0-.59-.13-.79-.39-.23-.3-.24-.63-.07-.96.08-.17.19-.32.29-.48.73-1.11,1.46-2.22,2.19-3.33.7-1.07,1.39-2.14,2.09-3.21.55-.84,1.09-1.68,1.64-2.52.91-1.4,1.81-2.79,2.72-4.19.58-.9,1.17-1.8,1.75-2.7.8-1.23,1.59-2.46,2.38-3.69.34-.53.69-1.06,1.04-1.59.05-.07.1-.15.15-.22.08-.11.18-.19.3-.25.37-.19.77-.02.93.22.19.28.37.56.55.85.81,1.3,1.62,2.59,2.43,3.89.83,1.33,1.66,2.66,2.49,3.99.01.02.02.04.04.06.05.05.1.06.14,0,.04-.05.08-.11.12-.17.49-.77.97-1.55,1.46-2.32.03-.06.07-.11.11-.16.26-.33.79-.36,1.08-.1.07.06.12.14.17.22.31.5.62,1,.93,1.5.65,1.04,1.29,2.07,1.94,3.11.62.99,1.24,1.99,1.86,2.98,1.05,1.68,2.11,3.37,3.16,5.05.52.83,1.03,1.66,1.54,2.49.12.19.22.4.31.61.14.31.12.61-.06.9-.15.24-.39.37-.66.43-.16.04-.32.05-.49.06-.44.01-.89.01-1.33.01-1.23,0-2.46,0-3.69,0-3.61,0-7.22-.02-10.83-.03,0,0,0,0,0,0ZM10.27,34.26h0c.37,0,.74,0,1.11,0,1.36,0,2.72,0,4.07,0,.02,0,.05,0,.07,0,.13,0,.21-.05.28-.17.22-.37.46-.73.69-1.09.5-.76.99-1.52,1.49-2.29.37-.57.73-1.14,1.1-1.71.53-.81,1.06-1.63,1.58-2.44.67-1.03,1.34-2.07,2.01-3.1.11-.17.22-.34.33-.52.05-.08.04-.11-.04-.16-.04-.02-.08-.04-.11-.06-.76-.43-1.52-.86-2.28-1.29-.15-.09-.3-.17-.45-.26-.12-.07-.16-.06-.24.05-.29.39-.59.78-.88,1.18-.17.23-.35.46-.53.69-.2.25-.46.33-.77.28-.24-.04-.41-.2-.57-.36-.36-.38-.71-.77-1.06-1.15-.1-.11-.2-.21-.3-.31-.07-.07-.09-.07-.18-.03-.03.01-.06.03-.08.05-.67.39-1.33.78-2,1.17-.63.37-1.26.73-1.89,1.09-.11.06-.2.14-.27.24-.09.15-.19.29-.28.44-.73,1.13-1.47,2.26-2.2,3.39-.7,1.09-1.41,2.19-2.11,3.29-.59.93-1.19,1.87-1.78,2.8-.04.06-.12.11-.07.2.04.07.13.05.19.05,1.72,0,3.43,0,5.15,0ZM26.31,34.27v.02c2.82,0,5.64,0,8.47,0,.12,0,.24,0,.36,0,.11,0,.14-.06.09-.16-.04-.08-.09-.16-.14-.24-.73-1.17-1.47-2.35-2.2-3.52-.77-1.24-1.55-2.49-2.32-3.73-.11-.18-.23-.36-.35-.54-.07-.1-.11-.1-.19-.02-.33.31-.65.62-.98.94-.12.11-.23.23-.36.33-.32.27-.67.3-1.08.03-.1-.06-.18-.15-.27-.23-.42-.39-.83-.77-1.25-1.16-.08-.07-.11-.08-.21-.03-.04.02-.08.04-.12.07-.49.28-.98.56-1.47.83-1.03.58-2.07,1.17-3.11,1.75-.19.11-.34.25-.46.44-.47.73-.95,1.46-1.42,2.19-.61.93-1.22,1.87-1.83,2.8-.02.03-.05.07-.06.11-.02.05,0,.09.06.1.02,0,.05,0,.07,0,.49,0,.99.02,1.48.02,2.43,0,4.86,0,7.29,0ZM19.74,19.53c.17,0,.31.06.44.13.61.34,1.21.67,1.82,1.01.05.03.11.1.17.03.06-.06,0-.12-.04-.17-.2-.31-.39-.62-.59-.93-.52-.82-1.04-1.64-1.56-2.45-.46-.73-.93-1.45-1.39-2.18-.19-.29-.37-.58-.56-.87-.07-.1-.12-.1-.19,0-.02.03-.05.07-.07.11-.33.51-.66,1.03-.99,1.54-.71,1.1-1.43,2.2-2.14,3.3-.45.7-.91,1.39-1.36,2.08-.03.04-.06.08-.02.12.04.05.09.03.14,0,0,0,.02,0,.02-.01.17-.1.34-.2.51-.3.51-.29,1.02-.59,1.54-.88.37-.2.71-.14,1,.16.03.03.06.07.09.1.15.17.3.34.45.51.21.24.42.47.63.71.1.12.13.12.23,0,0,0,.01-.01.02-.02.32-.42.64-.85.96-1.27.11-.14.22-.28.33-.42.14-.18.33-.26.54-.28ZM29.42,24.81c-.03-.05-.04-.1-.07-.13-.12-.19-.24-.39-.36-.58-.48-.76-.96-1.53-1.43-2.29-.3-.48-.61-.96-.91-1.44-.08-.13-.13-.13-.21,0-.4.6-.79,1.21-1.19,1.81-.66.98-1.33,1.95-2,2.92-.25.36-.51.72-.77,1.09-.03.04-.05.08-.01.13.04.05.08.02.12,0,.54-.31,1.09-.62,1.63-.93.53-.3,1.05-.6,1.58-.89.16-.09.34-.13.53-.08.16.04.29.12.41.23.42.39.84.77,1.25,1.16.11.1.13.1.25,0,.14-.11.28-.23.43-.34.22-.17.44-.35.66-.52.04-.03.07-.07.1-.11Z"/>
</svg>