<?xml version="1.0" encoding="UTF-8"?>
<svg id="Ebene_1" xmlns="http://www.w3.org/2000/svg" version="1.1" viewBox="0 0 40 40">
  <!-- Generator: Adobe Illustrator 29.8.3, SVG Export Plug-In . SVG Version: 2.1.1 Build 3)  -->
  <defs>
    <style>
      .st0 {
        fill: #474847;
      }
    </style>
  </defs>
  <path class="st0" d="M21.01,8c1.1.02,2.1.14,3.07.45.83.27,1.59.67,2.29,1.19.82.61,1.49,1.34,1.99,2.24.34.61.58,1.27.69,1.96.07.44.13.88.11,1.33-.04.9-.22,1.76-.67,2.55-.1.17-.2.33-.36.45-.53.44-1.27.33-1.64-.25-.07-.12-.14-.25-.18-.38-.31-.84-.93-1.33-1.8-1.49-.95-.17-1.75.12-2.4.84-.38.42-.59.91-.69,1.46-.32,1.86.75,3.62,2.46,4.33.48.2.97.3,1.49.34.83.06,1.63-.05,2.41-.32.61-.2,1.23-.41,1.85-.6.71-.22,1.45-.34,2.19-.38.8-.04,1.59.02,2.37.21.88.22,1.7.57,2.41,1.15.24.2.38.46.38.75,0,.5-.28.89-.8.99-.27.05-.52-.03-.74-.17-.18-.12-.35-.24-.53-.36-.63-.42-1.31-.64-2.06-.69-.7-.05-1.38.02-2.05.21-.62.17-1.23.38-1.84.57-.6.19-1.21.37-1.84.47-.58.1-1.17.15-1.76.12-1.17-.05-2.24-.39-3.22-1.04-.63-.41-1.15-.93-1.59-1.55-.47-.65-.78-1.38-.97-2.15-.12-.51-.15-1.02-.14-1.54.01-.53.11-1.05.27-1.55.19-.6.51-1.13.93-1.59.67-.73,1.48-1.24,2.45-1.43,1.5-.3,2.8.09,3.89,1.17.01.01.02.02.03.03.03.04.08.08.12.05.03-.02.06-.07.07-.11.01-.1.01-.19,0-.29-.02-.51-.07-1.01-.24-1.5-.25-.68-.63-1.27-1.15-1.77-.9-.86-1.98-1.35-3.2-1.55-.37-.06-.74-.09-1.11-.12-.8-.06-1.58.04-2.36.21-.86.19-1.67.5-2.45.92-.56.3-1.07.68-1.55,1.09-.5.43-.95.9-1.37,1.41-.44.54-.83,1.11-1.21,1.7-.47.75-.88,1.53-1.29,2.32-.41.78-.82,1.57-1.25,2.34-.49.86-1.09,1.65-1.75,2.4-.38.43-.79.82-1.23,1.18-.6.48-1.24.89-1.97,1.15-.35.12-.7.24-1.07.25-.18,0-.35-.03-.52-.1-.42-.18-.61-.72-.45-1.12.13-.32.34-.53.67-.6.31-.07.61-.16.9-.28.56-.22,1.04-.55,1.48-.95.84-.75,1.53-1.63,2.11-2.59.57-.95,1.07-1.95,1.59-2.93.5-.94,1.02-1.88,1.62-2.77.59-.88,1.25-1.69,2.03-2.42.59-.55,1.22-1.06,1.9-1.49,1-.63,2.06-1.12,3.21-1.42.6-.16,1.21-.27,1.83-.31.24-.01.47-.03.62-.03Z"/>
  <path class="st0" d="M5.51,29.97c-.58-.02-1.16-.08-1.74-.16-.6-.08-.99-.87-.6-1.47.21-.31.51-.43.87-.4.23.02.46.06.69.1.51.07,1.02.04,1.53-.04.42-.07.83-.17,1.24-.31.43-.15.85-.33,1.24-.56.62-.38,1.23-.77,1.84-1.15.86-.54,1.78-.96,2.79-1.14.59-.11,1.18-.14,1.77-.08,1.16.12,2.23.52,3.19,1.16.49.33.96.7,1.43,1.06.52.39,1.05.76,1.65,1.02.54.23,1.11.36,1.7.4.81.05,1.59-.11,2.34-.4.58-.23,1.15-.48,1.72-.73.86-.37,1.74-.67,2.67-.8.39-.05.78-.09,1.17-.08.7.01,1.39.12,2.07.33.83.26,1.58.68,2.29,1.17.32.22.63.46.95.69.12.09.25.19.36.3.5.49.37,1.2-.16,1.52-.26.16-.54.16-.82.04-.2-.09-.37-.22-.54-.36-.46-.37-.91-.75-1.41-1.07-.58-.37-1.2-.62-1.88-.71-.52-.07-1.05-.06-1.57,0-.78.1-1.49.39-2.2.7-.51.22-1.01.47-1.52.69-.68.31-1.4.51-2.14.61-1.18.15-2.33,0-3.43-.47-.7-.3-1.34-.69-1.95-1.14-.41-.31-.81-.63-1.22-.93-.61-.45-1.26-.81-2-1-.52-.14-1.05-.19-1.59-.14-.78.07-1.5.32-2.19.66-.56.28-1.08.62-1.6.96-.63.41-1.27.8-1.97,1.1-.8.34-1.63.56-2.49.62-.15.01-.31,0-.46,0Z"/>
  <path class="st0" d="M14.5,32.24c-.61.01-1.32.16-1.99.47-.43.2-.86.43-1.27.66-.53.3-1.06.6-1.62.84-.61.26-1.24.46-1.9.58-.58.1-1.16.14-1.75.12-.53-.01-1.06-.06-1.58-.17-.25-.05-.49-.1-.73-.17-.46-.14-.73-.58-.64-1.06.08-.49.45-.81.95-.8.14,0,.29.03.43.05.5.1,1.01.18,1.52.21.41.03.82-.03,1.23-.08.9-.12,1.74-.44,2.54-.85.47-.24.94-.5,1.41-.75.62-.32,1.26-.59,1.94-.75.47-.11.94-.19,1.42-.19.7,0,1.38.12,2.04.33.73.24,1.41.59,2.04,1.02.37.25.73.5,1.12.73.69.4,1.42.68,2.22.75.32.03.64.06.95.04.51-.03,1.01-.12,1.49-.27.6-.19,1.16-.45,1.72-.74.55-.28,1.1-.53,1.69-.73.56-.18,1.13-.31,1.71-.36.62-.06,1.24-.01,1.85.09.87.15,1.69.45,2.47.86.41.21.82.44,1.23.65.41.22.83.4,1.27.57.09.03.18.08.26.12.36.19.51.51.47.9-.04.4-.27.66-.65.8-.27.1-.55.08-.81-.02-.29-.11-.58-.23-.85-.37-.49-.26-.97-.54-1.46-.81-.49-.28-.98-.54-1.52-.71-.52-.16-1.05-.24-1.58-.23-.52,0-1.03.11-1.52.28-.57.19-1.12.45-1.66.71-.68.34-1.37.67-2.11.89-.51.15-1.02.24-1.55.29-.69.06-1.38.02-2.06-.12-.58-.12-1.12-.32-1.65-.57-.58-.27-1.1-.62-1.63-.98-.43-.29-.87-.58-1.35-.79-.63-.28-1.28-.44-2.08-.45Z"/>
</svg>